<svg width="60" height="88" viewBox="0 0 60 88" fill="none" xmlns="http://www.w3.org/2000/svg">
<path d="M48.8402 29.5959L48.8626 21.2626C48.8905 10.9073 40.5185 2.4901 30.1632 2.46222C19.8078 2.43434 11.3906 10.8064 11.3627 21.1617C11.3489 26.3196 13.419 30.9966 16.7801 34.3957C20.1669 37.8206 30.051 44.1287 30.051 44.1287C30.051 44.1287 39.8914 50.4171 43.2748 53.8144C46.6637 57.2173 48.7532 61.9139 48.7392 67.0958C48.7113 77.4512 40.2942 85.8231 29.9388 85.7953C19.5834 85.7674 11.2115 77.3502 11.2394 66.9948L11.2618 58.6615" stroke="black" stroke-width="4" stroke-linecap="round" stroke-linejoin="round"/>
<path d="M19.5725 67.0174L11.2617 58.6616L2.90593 66.9725" stroke="black" stroke-width="4" stroke-linecap="round" stroke-linejoin="round"/>
<path d="M57.1958 21.2852L48.8401 29.596L40.5292 21.2403" stroke="black" stroke-width="4" stroke-linecap="round" stroke-linejoin="round"/>
</svg>
