<svg width="29" height="23" viewBox="0 0 29 23" fill="none" xmlns="http://www.w3.org/2000/svg">
<path d="M2.83334 22.6667C2.05417 22.6667 1.38692 22.389 0.831586 21.8337C0.276252 21.2783 -0.000942039 20.6116 2.40521e-06 19.8333V2.83334C2.40521e-06 2.05417 0.277669 1.38692 0.833002 0.831586C1.38834 0.276252 2.05511 -0.000942039 2.83334 2.40521e-06H25.5C26.2792 2.40521e-06 26.9464 0.277669 27.5018 0.833002C28.0571 1.38834 28.3343 2.05511 28.3333 2.83334V19.8333C28.3333 20.6125 28.0557 21.2798 27.5003 21.8351C26.945 22.3904 26.2782 22.6676 25.5 22.6667H2.83334ZM14.1667 12.75L25.5 5.66667V2.83334L14.1667 9.91667L2.83334 2.83334V5.66667L14.1667 12.75Z" fill="#FDFEFF"/>
</svg>
