<svg width="34" height="28" viewBox="0 0 34 28" fill="none" xmlns="http://www.w3.org/2000/svg">
<path d="M29.2554 17.4301C29.0922 16.2962 28.2167 15.4122 27.0896 15.1487C22.7087 14.1219 21.6105 11.5991 21.4252 8.8009C20.6483 8.6564 19.2662 8.5 16.9202 8.5C14.5742 8.5 13.1921 8.6564 12.4152 8.8009C12.2299 11.5991 11.1317 14.1219 6.75075 15.1487C5.62365 15.4139 4.74815 16.2962 4.58495 17.4301L3.74005 23.2815C3.44255 25.3419 4.95555 27.2 7.06015 27.2H26.7802C28.8831 27.2 30.3978 25.3419 30.1003 23.2815L29.2554 17.4301ZM16.9202 22.9364C14.5487 22.9364 12.626 21.0324 12.626 18.6864C12.626 16.3404 14.5487 14.4364 16.9202 14.4364C19.2917 14.4364 21.2144 16.3404 21.2144 18.6864C21.2144 21.0324 19.29 22.9364 16.9202 22.9364ZM33.8352 6.8C33.7944 4.25 27.3038 0.0017 16.9202 0C6.53485 0.0017 0.0442537 4.25 0.0051537 6.8C-0.0339463 9.35 0.0408538 12.6684 4.31465 12.1159C9.31435 11.4682 9.00665 9.7223 9.00665 7.2267C9.00665 5.4859 13.0731 5.066 16.9202 5.066C20.7673 5.066 24.832 5.4859 24.8337 7.2267C24.8337 9.7223 24.526 11.4682 29.5257 12.1159C33.7978 12.6684 33.8743 9.35 33.8352 6.8Z" fill="#FDFEFF"/>
</svg>
